<?xml version="1.0" encoding="UTF-8"?>
<svg width="802px" height="602px" viewBox="0 0 802 602" version="1.1" xmlns="http://www.w3.org/2000/svg" xmlns:xlink="http://www.w3.org/1999/xlink">
    <!-- Generator: Sketch 64 (93537) - https://sketch.com -->
    <title>Main</title>
    <desc>Created with Sketch.</desc>
    <g id="Page-1" stroke="none" stroke-width="1" fill="none" fill-rule="evenodd">
        <g id="Main" transform="translate(1.000000, 1.000000)">
            <rect id="Background" stroke="#FFFFFF" fill="#FFFFFF" x="0" y="0" width="800" height="600"></rect>
            <g id="Cyl" transform="translate(399.000000, 298.500000) scale(-1, 1) translate(-399.000000, -298.500000) translate(201.000000, 134.000000)">
                <path id="Line-3" d="M25.2253767,147.316493 L33.6114943,152.877341 L30.143,154.87 L75.9080256,234.500858 L76.1571675,234.934365 L75.2901536,235.432649 L75.0410116,234.999142 L29.276,155.368 L25.8083688,157.361896 L25.2253767,147.316493 Z" fill="#4A90E2" fill-rule="nonzero"></path>
                <line x1="26.0408203" y1="147.250595" x2="266.974519" y2="8.25" id="Line" stroke="#979797" stroke-width="2" stroke-linecap="square"></line>
                <line x1="127.591474" y1="322.228056" x2="368.525172" y2="183.227461" id="Line-Copy" stroke="#979797" stroke-width="2" stroke-linecap="square"></line>
                <path d="M126.230962,322.718566 C157.319983,304.769311 159.912993,251.057555 132.022613,202.75 C104.132233,154.442445 56.3199826,129.83218 25.2309621,147.781434 C-5.85805841,165.730689 -8.451069,219.442445 19.4393109,267.75 C47.3296907,316.057555 95.1419416,340.66782 126.230962,322.718566 Z" id="Oval" stroke="#979797" stroke-width="2"></path>
                <path d="M370.474519,181.718566 C401.563539,163.769311 404.15655,110.057555 376.26617,61.75 C348.37579,13.442445 300.563539,-11.1678202 269.474519,6.78143422" id="Oval-Copy-2" stroke="#979797" stroke-width="2"></path>
                <path d="M267.718075,7.78143422 C236.629055,25.7306886 234.036044,79.442445 261.926424,127.75 C289.816804,176.057555 337.629055,200.66782 368.718075,182.718566" id="Oval-Copy-3" stroke="#979797" stroke-width="2" stroke-dasharray="9"></path>
                <line x1="198.558512" y1="165.25" x2="318.936043" y2="95.75" id="Line-4-Copy" stroke="#979797" stroke-width="2" stroke-linecap="square" stroke-dasharray="5"></line>
            </g>
            <text id="z" font-family="TimesNewRomanPS-ItalicMT, Times New Roman" font-size="36" font-style="italic" font-weight="normal" fill="#000000">
                <tspan x="186.995117" y="423">z</tspan>
            </text>
            <text id="x" font-family="TimesNewRomanPS-ItalicMT, Times New Roman" font-size="36" font-style="italic" font-weight="normal" fill="#000000">
                <tspan x="597.010742" y="423">x</tspan>
            </text>
            <path d="M152.55127,241.474609 C153.449707,241.474609 154.348145,241.157227 155.246582,240.522461 C156.428223,239.692383 157.531738,238.188477 158.557129,236.010742 C159.279785,234.467773 159.997559,232.285156 160.710449,229.462891 L160.710449,229.462891 L162.321777,223.061523 L164.460449,223.061523 L164.724121,222.094727 L162.570801,222.094727 C163.273926,219.80957 163.757324,218.378906 164.020996,217.802734 C164.538574,216.699219 165.124512,215.888672 165.778809,215.371094 C166.26709,214.980469 166.818848,214.785156 167.434082,214.785156 C167.678223,214.785156 167.86377,214.833984 167.990723,214.931641 C168.078613,215 168.122559,215.102539 168.122559,215.239258 C168.122559,215.317383 168.059082,215.471191 167.932129,215.700684 C167.805176,215.930176 167.741699,216.123047 167.741699,216.279297 C167.741699,216.523438 167.836914,216.733398 168.027344,216.90918 C168.217773,217.084961 168.464355,217.172852 168.76709,217.172852 C169.118652,217.172852 169.406738,217.055664 169.631348,216.821289 C169.855957,216.586914 169.968262,216.298828 169.968262,215.957031 C169.968262,215.517578 169.743652,215.109863 169.294434,214.733887 C168.845215,214.35791 168.249512,214.169922 167.507324,214.169922 C166.804199,214.169922 166.054688,214.387207 165.258789,214.821777 C164.462891,215.256348 163.703613,215.908203 162.980957,216.777344 C162.453613,217.421875 161.901855,218.330078 161.325684,219.501953 C160.895996,220.371094 160.546875,220.964355 160.27832,221.281738 C160.009766,221.599121 159.714355,221.813965 159.39209,221.92627 C159.069824,222.038574 158.503418,222.094727 157.692871,222.094727 L157.692871,222.094727 L157.487793,223.061523 L160.036621,223.061523 L157.487793,232.978516 C156.89209,235.273438 156.525879,236.625977 156.38916,237.036133 C156.066895,238.022461 155.725098,238.776855 155.36377,239.299316 C155.002441,239.821777 154.589844,240.214844 154.125977,240.478516 C153.662109,240.742188 153.220215,240.874023 152.800293,240.874023 C152.614746,240.874023 152.478027,240.839844 152.390137,240.771484 C152.321777,240.722656 152.287598,240.654297 152.287598,240.566406 C152.287598,240.498047 152.365723,240.395508 152.521973,240.258789 C152.727051,240.073242 152.82959,239.873047 152.82959,239.658203 C152.82959,239.443359 152.739258,239.25293 152.558594,239.086914 C152.37793,238.920898 152.155762,238.837891 151.89209,238.837891 C151.530762,238.837891 151.225586,238.952637 150.976563,239.182129 C150.727539,239.411621 150.603027,239.682617 150.603027,239.995117 C150.603027,240.385742 150.754395,240.703125 151.057129,240.947266 C151.467285,241.298828 151.965332,241.474609 152.55127,241.474609 Z" id="f" fill="#000000" fill-rule="nonzero"></path>
            <text id="g" font-family="TimesNewRomanPS-ItalicMT, Times New Roman" font-size="30" font-style="italic" font-weight="normal" fill="#000000">
                <tspan x="278.5" y="280">g</tspan>
            </text>
            <path d="M271.65551,344.243164 L270.19377,344.243164 C269.995444,344.647608 269.768192,344.931641 269.435059,344.931641 C269.297318,344.931641 269.022882,344.835222 268.608694,344.678394 C268.068242,344.473756 267.723783,344.358973 267.566592,344.325403 C267.284467,344.271148 266.969849,344.243164 266.622559,344.243164 C265.395153,344.243164 264.397096,344.623111 263.619425,345.362174 C262.82708,346.115183 262.431152,347.036846 262.431152,348.126953 C262.431152,348.716401 262.570335,349.306629 262.854125,349.896467 C263.114012,350.436624 263.694571,351.25045 264.607223,352.331356 C265.442263,353.320341 265.995964,354.091744 266.257358,354.651872 C266.383602,354.920147 266.444824,355.210749 266.444824,355.524414 C266.444824,355.986666 266.279554,356.376589 265.947634,356.69359 C265.598084,357.02743 265.119825,357.177734 264.527832,357.177734 C263.722687,357.177734 263.079769,356.934838 262.613444,356.419426 C262.096031,355.847549 261.862712,354.840737 261.795482,353.105469 L260.363183,353.105469 L259.281357,358.851562 L260.7591,358.851562 C260.854372,358.583188 260.959973,358.371228 261.422363,358.177734 C261.558736,358.177734 261.750006,358.233028 261.998562,358.323412 C262.981537,358.678957 263.849262,358.851562 264.601074,358.851562 C266.029693,358.851562 267.207763,358.40818 268.142389,357.538383 C269.101517,356.645784 269.568848,355.619613 269.568848,354.469727 C269.568848,353.772578 269.368966,353.029654 268.954399,352.24416 C268.571497,351.51866 267.730537,350.436588 266.420062,349.005146 C265.987759,348.528723 265.699839,348.160729 265.571268,347.89472 C265.463053,347.670826 265.408691,347.435775 265.408691,347.189453 C265.408691,346.862442 265.536284,346.585041 265.784161,346.354142 C266.056415,346.100536 266.428653,345.990234 266.88623,345.990234 C267.488057,345.990234 267.989814,346.232406 268.395371,346.708156 C268.864269,347.258209 269.07555,348.162617 269.135395,349.740234 L270.563258,349.740234 L271.65551,344.243164 Z" id="s" stroke="#FFFFFF" fill="#000000" fill-rule="nonzero"></path>
            <text id="y" font-family="TimesNewRomanPS-ItalicMT, Times New Roman" font-size="36" font-style="italic" font-weight="normal" fill="#000000">
                <tspan x="392.010742" y="57">y</tspan>
            </text>
            <path id="Line-2" d="M400,78 L407,92 L401,92 L401,301 L399,301 L399,92 L393,92 L400,78 Z" fill="#4A4A4A" fill-rule="nonzero"></path>
            <path id="Line-2-Copy" d="M399.633975,298.633975 L400.5,299.133975 L580.633,403.133 L583.633284,397.937822 L592.25764,411 L576.633284,410.062178 L579.633,404.866 L399.5,300.866025 L398.633975,300.366025 L399.633975,298.633975 Z" fill="#4A4A4A" fill-rule="nonzero"></path>
            <path id="Line-2-Copy-2" d="M400.366025,298.633975 L401.366025,300.366025 L400.5,300.866025 L220.366,404.866 L223.366716,410.062178 L207.74236,411 L216.366716,397.937822 L219.366,403.133 L399.5,299.133975 L400.366025,298.633975 Z" fill="#4A4A4A" fill-rule="nonzero"></path>
            <text id="r" stroke="#FFFFFF" stroke-width="7" fill="#D8D8D8" font-family="TimesNewRomanPS-ItalicMT, Times New Roman" font-size="36" font-style="italic" font-weight="normal">
                <tspan x="540.495117" y="333">r</tspan>
            </text>
            <text id="r" font-family="TimesNewRomanPS-ItalicMT, Times New Roman" font-size="36" font-style="italic" font-weight="normal" fill="#4A90E2">
                <tspan x="540.495117" y="333">r</tspan>
            </text>
            <g id="Group" transform="translate(33.000000, 157.000000)">
                <path d="M636.46875,27.4160156 L636.600586,26.8740234 C635.80957,26.7470703 635.306641,26.5932617 635.091797,26.4125977 C634.876953,26.2319336 634.769531,25.9853516 634.769531,25.6728516 C634.769531,25.1748047 634.90625,24.4472656 635.179688,23.4902344 L635.179688,23.4902344 L635.941406,20.8535156 C636.400391,21.0878906 636.756836,21.2392578 637.010742,21.3076172 C637.264648,21.3759766 637.572266,21.4101562 637.933594,21.4101562 C639.964844,21.4101562 641.839844,20.453125 643.558594,18.5390625 C645.501953,16.3710938 646.473633,13.8857422 646.473633,11.0830078 C646.473633,10.0576172 646.224609,9.19091797 645.726562,8.48291016 C645.228516,7.77490234 644.520508,7.42089844 643.602539,7.42089844 C642.958008,7.42089844 642.308594,7.58447266 641.654297,7.91162109 C641,8.23876953 640.160156,8.87109375 639.134766,9.80859375 L639.134766,9.80859375 L639.793945,7.42089844 L638.915039,7.42089844 L634.066406,8.24121094 L633.905273,8.8125 C634.452148,8.8125 634.803711,8.83691406 634.959961,8.88574219 C635.116211,8.93457031 635.233398,9.01513672 635.311523,9.12744141 C635.389648,9.23974609 635.428711,9.37890625 635.428711,9.54492188 C635.428711,9.92578125 635.296875,10.5751953 635.033203,11.4931641 L635.033203,11.4931641 L631.458984,23.8125 C631.097656,25.0722656 630.709473,25.8925781 630.294434,26.2734375 C629.879395,26.6542969 629.359375,26.8544922 628.734375,26.8740234 L628.734375,26.8740234 L628.587891,27.4160156 L636.46875,27.4160156 Z M637.962891,20.6923828 C637.650391,20.6923828 637.376953,20.6118164 637.142578,20.4506836 C636.908203,20.2895508 636.644531,19.9697266 636.351562,19.4912109 L636.351562,19.4912109 L638.695312,11.2294922 C639.291016,10.5361328 639.808594,10.0625 640.248047,9.80859375 C640.550781,9.6328125 640.873047,9.54492188 641.214844,9.54492188 C641.595703,9.54492188 641.92041,9.71582031 642.188965,10.0576172 C642.45752,10.3994141 642.591797,10.9462891 642.591797,11.6982422 C642.591797,12.6357422 642.469727,13.6196289 642.225586,14.6499023 C641.981445,15.6801758 641.656738,16.6005859 641.251465,17.4111328 C640.846191,18.2216797 640.423828,18.8857422 639.984375,19.4033203 C639.544922,19.9208984 639.17627,20.2651367 638.878418,20.4360352 C638.580566,20.6069336 638.275391,20.6923828 637.962891,20.6923828 Z M655.186523,30 L655.186523,29.6206055 C654.557617,29.6069336 654.140625,29.5488281 653.935547,29.4462891 C653.730469,29.34375 653.595459,29.1967773 653.530518,29.0053711 C653.465576,28.8139648 653.433105,28.3286133 653.433105,27.5493164 L653.433105,15.8085938 L653.094727,15.8085938 L649.710938,17.4594727 L649.864746,17.7773438 C650.315918,17.5654297 650.667969,17.4594727 650.920898,17.4594727 C651.098633,17.4594727 651.250732,17.5107422 651.377197,17.6132812 C651.503662,17.7158203 651.59082,17.8764648 651.638672,18.0952148 C651.707031,18.3823242 651.741211,19.0317383 651.741211,20.043457 L651.741211,20.043457 L651.741211,27.5493164 C651.741211,28.3833008 651.703613,28.8840332 651.628418,29.0515137 C651.553223,29.2189941 651.419922,29.3522949 651.228516,29.451416 C651.037109,29.5505371 650.613281,29.6069336 649.957031,29.6206055 L649.957031,29.6206055 L649.957031,30 L655.186523,30 Z" id="p1" fill="#000000" fill-rule="nonzero"></path>
                <path d="M8.46875,27.4160156 L8.60058594,26.8740234 C7.80957031,26.7470703 7.30664062,26.5932617 7.09179688,26.4125977 C6.87695312,26.2319336 6.76953125,25.9853516 6.76953125,25.6728516 C6.76953125,25.1748047 6.90625,24.4472656 7.1796875,23.4902344 L7.1796875,23.4902344 L7.94140625,20.8535156 C8.40039062,21.0878906 8.75683594,21.2392578 9.01074219,21.3076172 C9.26464844,21.3759766 9.57226562,21.4101562 9.93359375,21.4101562 C11.9648438,21.4101562 13.8398438,20.453125 15.5585938,18.5390625 C17.5019531,16.3710938 18.4736328,13.8857422 18.4736328,11.0830078 C18.4736328,10.0576172 18.2246094,9.19091797 17.7265625,8.48291016 C17.2285156,7.77490234 16.5205078,7.42089844 15.6025391,7.42089844 C14.9580078,7.42089844 14.3085938,7.58447266 13.6542969,7.91162109 C13,8.23876953 12.1601562,8.87109375 11.1347656,9.80859375 L11.1347656,9.80859375 L11.7939453,7.42089844 L10.9150391,7.42089844 L6.06640625,8.24121094 L5.90527344,8.8125 C6.45214844,8.8125 6.80371094,8.83691406 6.95996094,8.88574219 C7.11621094,8.93457031 7.23339844,9.01513672 7.31152344,9.12744141 C7.38964844,9.23974609 7.42871094,9.37890625 7.42871094,9.54492188 C7.42871094,9.92578125 7.296875,10.5751953 7.03320312,11.4931641 L7.03320312,11.4931641 L3.45898438,23.8125 C3.09765625,25.0722656 2.70947266,25.8925781 2.29443359,26.2734375 C1.87939453,26.6542969 1.359375,26.8544922 0.734375,26.8740234 L0.734375,26.8740234 L0.587890625,27.4160156 L8.46875,27.4160156 Z M9.96289062,20.6923828 C9.65039062,20.6923828 9.37695312,20.6118164 9.14257812,20.4506836 C8.90820312,20.2895508 8.64453125,19.9697266 8.3515625,19.4912109 L8.3515625,19.4912109 L10.6953125,11.2294922 C11.2910156,10.5361328 11.8085938,10.0625 12.2480469,9.80859375 C12.5507812,9.6328125 12.8730469,9.54492188 13.2148438,9.54492188 C13.5957031,9.54492188 13.9204102,9.71582031 14.1889648,10.0576172 C14.4575195,10.3994141 14.5917969,10.9462891 14.5917969,11.6982422 C14.5917969,12.6357422 14.4697266,13.6196289 14.2255859,14.6499023 C13.9814453,15.6801758 13.6567383,16.6005859 13.2514648,17.4111328 C12.8461914,18.2216797 12.4238281,18.8857422 11.984375,19.4033203 C11.5449219,19.9208984 11.1762695,20.2651367 10.878418,20.4360352 C10.5805664,20.6069336 10.2753906,20.6923828 9.96289062,20.6923828 Z M24.4384766,30.2460938 C25.1083984,30.2460938 25.8039551,29.9914551 26.5251465,29.4821777 C27.2463379,28.9729004 27.8393555,28.1542969 28.3041992,27.0263672 C28.769043,25.8984375 29.0014648,24.527832 29.0014648,22.9145508 C29.0014648,20.6108398 28.4716797,18.7856445 27.4121094,17.4389648 C26.5644531,16.3520508 25.6074219,15.8085938 24.5410156,15.8085938 C23.8847656,15.8085938 23.2490234,16.0307617 22.6337891,16.4750977 C21.8408203,17.0356445 21.2050781,17.8884277 20.7265625,19.0334473 C20.2480469,20.1784668 20.0087891,21.5439453 20.0087891,23.1298828 C20.0087891,24.9892578 20.3813477,26.5786133 21.1264648,27.8979492 C22.0083008,29.4633789 23.1123047,30.2460938 24.4384766,30.2460938 Z M24.4692383,29.6000977 C23.6967773,29.6000977 23.1157227,29.0908203 22.7260742,28.0722656 C22.2543945,26.8623047 22.0185547,25.300293 22.0185547,23.3862305 C22.0185547,22.2036133 22.1074219,21.0039062 22.2851562,19.7871094 C22.4628906,18.5703125 22.7978516,17.6782227 23.2900391,17.1108398 C23.6523438,16.6938477 24.065918,16.4853516 24.5307617,16.4853516 C24.9272461,16.4853516 25.265625,16.5981445 25.5458984,16.8237305 C25.9355469,17.1518555 26.253418,17.7089844 26.4995117,18.4951172 C26.8276367,19.5546875 26.9916992,20.8774414 26.9916992,22.4633789 C26.9916992,24.6030273 26.8344727,26.2607422 26.5200195,27.4365234 C26.3149414,28.2158203 26.0141602,28.7712402 25.6176758,29.1027832 C25.2211914,29.4343262 24.8383789,29.6000977 24.4692383,29.6000977 Z" id="p0" fill="#000000" fill-rule="nonzero"></path>
                <polygon id="Line-3-Copy" fill="#4A90E2" fill-rule="nonzero" transform="translate(145.525481, 69.765234) rotate(30.000000) translate(-145.525481, -69.765234) " points="129.973493 42.7047736 138.35961 48.2656216 134.891 50.258 157.026 88.773 160.494478 86.780291 161.07747 96.825694 152.691352 91.2648459 156.159 89.271 134.024 50.757 130.556485 52.7501765"></polygon>
                <polygon id="Line-3-Copy-2" fill="#4A90E2" fill-rule="nonzero" transform="translate(253.323597, 144.223419) rotate(120.000000) translate(-253.323597, -144.223419) " points="231.291566 105.887684 239.677683 111.448532 236.209 113.441 271.304 174.506 274.772637 172.513751 275.355629 182.559154 266.969511 176.998306 270.437 175.005 235.342 113.94 231.874558 115.933087"></polygon>
                <polygon id="Line-3-Copy-3" fill="#4A90E2" fill-rule="nonzero" transform="translate(235.077530, 184.906639) rotate(120.000000) translate(-235.077530, -184.906639) " points="203.934788 130.718267 212.320905 136.279115 208.852 138.272 262.169 231.042 265.63728 229.049607 266.220272 239.09501 257.834155 233.534162 261.302 231.541 207.985 138.77 204.51778 140.76367"></polygon>
                <path d="M389.320801,4.98925781 C389.916504,4.98925781 390.424316,4.77929688 390.844238,4.359375 C391.26416,3.93945312 391.474121,3.43164062 391.474121,2.8359375 C391.474121,2.24023438 391.266602,1.73242188 390.851562,1.3125 C390.436523,0.892578125 389.92627,0.682617188 389.320801,0.682617188 C388.725098,0.682617188 388.219727,0.892578125 387.804688,1.3125 C387.389648,1.73242188 387.182129,2.24023438 387.182129,2.8359375 C387.182129,3.43164062 387.39209,3.93945312 387.812012,4.359375 C388.231934,4.77929688 388.734863,4.98925781 389.320801,4.98925781 Z M385.263184,21.4101562 C386.92334,21.4101562 388.490723,20.1259766 389.965332,17.5576172 L389.965332,17.5576172 L389.467285,17.2646484 C388.852051,18.2119141 388.324707,18.8662109 387.885254,19.2275391 C387.719238,19.3740234 387.553223,19.4472656 387.387207,19.4472656 C387.289551,19.4472656 387.196777,19.4008789 387.108887,19.3081055 C387.020996,19.215332 386.977051,19.1152344 386.977051,19.0078125 C386.977051,18.8222656 387.060059,18.4316406 387.226074,17.8359375 L387.226074,17.8359375 L390.229004,7.42089844 L389.350098,7.42089844 L384.384277,8.2265625 L384.193848,8.8125 C384.398926,8.80273438 384.574707,8.79785156 384.721191,8.79785156 C385.043457,8.79785156 385.297363,8.88085938 385.48291,9.046875 C385.668457,9.21289062 385.76123,9.40332031 385.76123,9.61816406 C385.76123,9.95996094 385.663574,10.4677734 385.468262,11.1416016 L385.468262,11.1416016 L383.432129,18.1435547 C383.266113,18.7001953 383.183105,19.1591797 383.183105,19.5205078 C383.183105,20.0673828 383.371094,20.519043 383.74707,20.8754883 C384.123047,21.2319336 384.628418,21.4101562 385.263184,21.4101562 Z M398.854004,30 L398.854004,29.6206055 C398.225098,29.6069336 397.808105,29.5488281 397.603027,29.4462891 C397.397949,29.34375 397.262939,29.1967773 397.197998,29.0053711 C397.133057,28.8139648 397.100586,28.3286133 397.100586,27.5493164 L397.100586,27.5493164 L397.100586,15.8085938 L396.762207,15.8085938 L393.378418,17.4594727 L393.532227,17.7773438 C393.983398,17.5654297 394.335449,17.4594727 394.588379,17.4594727 C394.766113,17.4594727 394.918213,17.5107422 395.044678,17.6132812 C395.171143,17.7158203 395.258301,17.8764648 395.306152,18.0952148 C395.374512,18.3823242 395.408691,19.0317383 395.408691,20.043457 L395.408691,20.043457 L395.408691,27.5493164 C395.408691,28.3833008 395.371094,28.8840332 395.295898,29.0515137 C395.220703,29.2189941 395.087402,29.3522949 394.895996,29.451416 C394.70459,29.5505371 394.280762,29.6069336 393.624512,29.6206055 L393.624512,29.6206055 L393.624512,30 L398.854004,30 Z" id="i1" fill="#000000" fill-rule="nonzero"></path>
                <path d="M205.208496,14.8085938 C206.550498,14.8085938 207.787674,15.438558 208.865493,16.8206149 C210.044719,18.3193731 210.668945,20.3413574 210.668945,22.9145508 C210.668945,24.6789666 210.404161,26.1749467 209.896242,27.4073988 C209.344669,28.7457744 208.621625,29.6972741 207.769462,30.2990383 C206.848906,30.9490993 205.95602,31.2460938 205.105957,31.2460937 C204.232889,31.2460937 203.432124,30.990379 202.704958,30.4748338 C202.048935,30.0097279 201.447864,29.3210657 200.923214,28.3897091 C200.101249,26.934302 199.67627,25.1837487 199.67627,23.1298828 C199.67627,21.3931902 199.947816,19.9006532 200.471374,18.6478543 C201.03361,17.3025042 201.795096,16.315183 202.715779,15.6644184 C203.519881,15.0836779 204.35382,14.8085938 205.208496,14.8085938 Z M205.198242,17.4853516 C205.006275,17.4853516 204.854265,17.6034234 204.712391,17.7667121 C204.315729,18.2239765 204.084112,18.9596572 203.942137,19.9316431 C203.77154,21.0995757 203.686035,22.2510951 203.686035,23.3862305 C203.686035,25.1499135 203.890142,26.5928789 204.325263,27.7090574 C204.452549,28.0417332 204.592144,28.3008365 205.136719,28.6000977 C205.308532,28.6000977 205.468652,28.4819997 205.643672,28.3356472 C205.915544,28.1083056 206.082727,27.7052825 206.220425,27.1820301 C206.519569,26.0634639 206.65918,24.4908095 206.65918,22.4633789 C206.65918,20.9966278 206.515412,19.7715185 206.211748,18.7909348 C206.04187,18.2482862 205.852076,17.8329819 205.198242,17.4853516 Z M197.5569,16.8298235 L200.558067,6.42089844 L198.269504,6.42089844 L192.621838,7.33718645 L191.784323,9.91415282 C192.673144,9.84009649 193.318697,9.79785156 193.750486,9.79264879 C193.723848,10.0287144 193.646461,10.3550893 193.505769,10.8701724 L191.471904,17.8643262 C191.273367,18.5299284 191.183105,19.084922 191.183105,19.5205078 C191.183105,20.3632217 191.481721,21.0538418 192.059064,21.6011933 C192.605657,22.119392 193.330944,22.4101562 194.263184,22.4101562 C196.263405,22.4101562 198.266071,20.9995122 200.320765,17.1947493 L198.144737,15.914733 C197.92911,16.2495367 197.738188,16.5538939 197.5569,16.8298235 Z M198.320801,-0.317382812 C197.44521,-0.317382812 196.703197,-0.00737267871 196.093458,0.609540366 C195.486907,1.22322676 195.182129,1.96494535 195.182129,2.8359375 C195.182129,3.70828462 195.490075,4.45165227 196.104905,5.06648178 C196.721627,5.6832036 197.460891,5.98925781 198.320801,5.98925781 C199.193148,5.98925781 199.936516,5.68131129 200.551345,5.06648178 C201.166175,4.45165227 201.474121,3.70828462 201.474121,2.8359375 C201.474121,1.96494535 201.169343,1.22322676 200.562792,0.609540366 C199.954916,-0.00548759575 199.208823,-0.317382812 198.320801,-0.317382812 Z" id="i0" stroke="#FFFFFF" stroke-width="2" fill="#000000" fill-rule="nonzero"></path>
                <path d="M297,194 C365.483309,194 421,152.810197 421,102 C421,51.189803 365.483309,10 297,10 C228.516691,10 173,51.189803 173,102 C173,152.810197 228.516691,194 297,194 Z" id="Oval" stroke="#10989A" stroke-dasharray="5"></path>
                <line x1="18" y1="38.5" x2="643" y2="38" id="Line-5" stroke="#C40000" stroke-width="2" stroke-linecap="square"></line>
                <line x1="297.471028" y1="184.5" x2="297" y2="38.4710282" id="Line-5-Copy" stroke="#C40000" stroke-linecap="square" stroke-dasharray="5"></line>
                <line x1="208.471028" y1="143" x2="208" y2="38.4710282" id="Line-5-Copy-3" stroke="#C40000" stroke-linecap="square" stroke-dasharray="5"></line>
                <line x1="173" y1="184.5" x2="173" y2="102.471028" id="Line-5-Copy-4" stroke="#C40000" stroke-linecap="square" stroke-dasharray="5"></line>
                <line x1="297" y1="102" x2="144.5" y2="101.471028" id="Line-5-Copy-2" stroke="#10989A" stroke-linecap="square" stroke-dasharray="5"></line>
                <circle id="Oval" fill="#000000" cx="207.471028" cy="38.4710282" r="4"></circle>
                <circle id="Oval-Copy-6" fill="#000000" cx="297.471028" cy="38.4710282" r="4"></circle>
                <circle id="Oval-Copy-7" fill="#000000" cx="297.471028" cy="101.471028" r="4"></circle>
                <circle id="Oval-Copy-4" fill="#000000" cx="18" cy="38.4710282" r="4"></circle>
                <circle id="Oval-Copy-5" fill="#000000" cx="644" cy="38.4710282" r="4"></circle>
                <circle id="Oval-Copy" fill="#000000" cx="388" cy="38.4710282" r="4"></circle>
                <path d="M326.07107,109.3666 L325.414988,110.89325 C325.142229,111.52794 324.886401,111.989708 324.58498,112.241919 C324.244293,112.53456 323.861518,112.6875 323.431885,112.6875 C322.84,112.6875 322.385986,112.394846 322.043383,111.860725 C321.593177,111.158851 321.376221,110.347644 321.376221,109.432129 C321.376221,108.603715 321.556698,107.922668 321.977581,107.413452 C322.200504,107.143022 322.496576,107.017578 323.271895,107.340865 C323.336119,108.029815 323.527978,108.459062 323.721046,108.697558 C324.094865,109.171182 324.644256,109.458008 325.410889,109.458008 C325.655485,109.458008 325.874731,109.425782 326.07107,109.3666 Z M327.206573,106.724372 C327.023059,106.237615 326.671169,105.754526 326.107341,105.29115 C325.346732,104.666052 324.382343,104.330566 323.196045,104.330566 C321.685625,104.330566 320.387941,104.891226 319.308386,106.02539 C318.261696,107.125024 317.715088,108.547812 317.715088,110.313965 C317.715088,112.126618 318.218079,113.547732 319.155872,114.606791 C320.161697,115.742681 321.347518,116.287109 322.693604,116.287109 C323.830205,116.287109 324.874237,115.878371 325.81439,115.029622 C326.659803,114.266402 327.291892,113.219171 327.333503,111.309875 L327.445559,106.168268 L327.206573,106.724372 Z M313.667798,94.3155146 C313.30762,94.782585 313.144775,95.2986457 313.144775,95.8486328 C313.144775,96.5214413 313.388291,97.1078051 313.890314,97.6015982 C314.374551,98.0778974 314.978396,98.328125 315.712158,98.328125 C316.491795,98.328125 317.215975,98.0144578 317.856214,97.3146619 C318.445876,96.6701475 318.748291,95.8905236 318.748291,94.9697266 C318.748291,93.9494727 318.359786,93.0919282 317.572768,92.4015612 C316.868724,91.7839784 315.835608,91.4208984 314.423096,91.4208984 C312.873822,91.4208984 311.29109,91.9128324 309.683804,92.931147 C308.119704,93.9221013 306.858399,95.2645319 305.904669,96.9630286 C304.94545,98.6712996 304.4729,100.410373 304.4729,102.176758 C304.4729,103.035745 304.664473,103.87491 305.052958,104.693084 C305.46545,105.561817 306.103826,106.239351 306.97319,106.720942 C307.792665,107.174896 308.731476,107.410156 309.794189,107.410156 C311.274034,107.410156 312.705961,107.017627 314.087257,106.222 C315.145635,105.613997 316.235093,104.648345 317.774812,102.769815 L315.872031,101.057312 C315.126709,101.976261 314.330835,102.638404 313.46878,103.020253 C312.886475,103.278187 312.34654,103.417969 311.844971,103.417969 C311.413954,103.417969 311.050114,103.23153 310.740353,102.889624 C310.374361,102.485652 310.2229,101.936168 310.2229,101.268555 C310.2229,100.168237 310.459233,99.0071126 310.92039,97.7832733 C311.369174,96.5922696 312.011858,95.6046854 312.85829,94.8273502 C313.113444,94.5928845 313.375539,94.4100629 313.667798,94.3155146 Z" id="cc" stroke="#FFFFFF" stroke-width="2" fill="#000000" fill-rule="nonzero"></path>
                <path d="M305.906119,14.1141567 L241.835368,17.9750977 L292.254189,17.9212308 C292.319428,17.9958371 292.158788,18.2800578 292.163818,18.5566406 L292.163818,27.5288086 C292.163818,27.8512346 292.260119,28.1232805 291.922182,27.9597392 L287.042363,31.5 L303.63521,31.5 L307.797483,12.6945491 C303.245483,19.8437944 302.39586,25.5860126 301.094462,27.0500851 C300.920356,27.2459548 300.735048,27.3954968 300.521967,27.4732882 C300.215632,27.5851248 299.695323,27.6075797 298.782121,27.6181641 L297.775635,27.6181641 C297.525338,27.6181641 297.317094,27.6370893 297.132568,27.5176123 L297.132568,18.7924805 C297.132568,18.3411084 297.075664,18.0196683 297.249011,17.9697446 C297.555123,17.8722391 297.977956,17.7367631 298.583603,17.4600252 L305.906119,14.1141567 Z M285.892277,10.7697856 C285.891663,10.7960083 285.891357,10.8222913 285.891357,10.8486328 C285.891357,11.6576502 286.182168,12.3638561 286.786276,12.9580613 C287.363707,13.5260257 288.082706,13.828125 288.95874,13.828125 C289.869407,13.828125 290.721301,13.4723702 291.471698,12.6521686 C292.146231,11.9148892 292.494873,11.0237737 292.494873,9.96972656 C292.494873,8.80067387 292.051276,7.81709157 291.149069,7.02568164 C290.371323,6.34344809 289.236688,5.92089844 287.669678,5.92089844 C286.034244,5.92089844 284.36083,6.4329693 282.662792,7.50878108 C281.029531,8.54355235 279.711304,9.94440526 278.715279,11.7182245 C277.711022,13.5067052 277.219482,15.3279616 277.219482,17.1767578 C277.219482,18.1087929 277.426275,19.019641 277.84787,19.9075465 C278.305475,20.87129 279.012794,21.6239198 279.977485,22.1583169 C280.867342,22.6512596 281.886154,22.9101562 283.040771,22.9101562 C284.606241,22.9101562 286.121808,22.4971433 287.5834,21.6552662 C288.748042,20.9862182 289.955655,19.9072432 291.708322,17.7153694 L289.052947,15.3255317 C288.268867,16.3902685 287.434604,17.1548064 286.512862,17.5630949 C286.003175,17.7888625 285.531407,17.9179688 285.091553,17.9179688 C284.801473,17.9179688 284.563329,17.7811327 284.357478,17.5539191 C284.067278,17.2336046 283.969482,16.7914593 283.969482,16.2685547 C283.969482,15.2235462 284.197028,14.1215087 284.634857,12.9595779 C284.950622,12.1215869 285.367659,11.3901974 285.892277,10.7697856 Z" id="cL" stroke="#FFFFFF" stroke-width="3" fill="#000000" fill-rule="nonzero"></path>
            </g>
        </g>
    </g>
</svg>