<?xml version="1.0" encoding="UTF-8"?>
<svg width="802px" height="502px" viewBox="0 0 802 502" version="1.1" xmlns="http://www.w3.org/2000/svg" xmlns:xlink="http://www.w3.org/1999/xlink">
    <!-- Generator: Sketch 61 (89581) - https://sketch.com -->
    <title>Root</title>
    <desc>Created with Sketch.</desc>
    <g id="Page-1" stroke="none" stroke-width="1" fill="none" fill-rule="evenodd">
        <g id="Root" transform="translate(1.000000, 1.000000)">
            <g id="Main">
                <rect id="Background" stroke="#FFFFFF" fill="#FFFFFF" x="0" y="0" width="800" height="500"></rect>
                <text id="z" font-family="TimesNewRomanPS-ItalicMT, Times New Roman" font-size="36" font-style="italic" font-weight="normal" fill="#000000">
                    <tspan x="186.995117" y="423">z</tspan>
                </text>
                <text id="x" font-family="TimesNewRomanPS-ItalicMT, Times New Roman" font-size="36" font-style="italic" font-weight="normal" fill="#000000">
                    <tspan x="597.010742" y="423">x</tspan>
                </text>
                <text id="y" font-family="TimesNewRomanPS-ItalicMT, Times New Roman" font-size="36" font-style="italic" font-weight="normal" fill="#000000">
                    <tspan x="392.010742" y="57">y</tspan>
                </text>
                <path id="Line-2" d="M400,78 L407,92 L401,92 L401,301 L399,301 L399,92 L393,92 L400,78 Z" fill="#4A4A4A" fill-rule="nonzero"></path>
                <path id="Line-2-Copy" d="M399.633975,298.633975 L400.5,299.133975 L580.633,403.133 L583.633284,397.937822 L592.25764,411 L576.633284,410.062178 L579.633,404.866 L399.5,300.866025 L398.633975,300.366025 L399.633975,298.633975 Z" fill="#4A4A4A" fill-rule="nonzero"></path>
                <path id="Line-2-Copy-2" d="M400.366025,298.633975 L401.366025,300.366025 L400.5,300.866025 L220.366,404.866 L223.366716,410.062178 L207.74236,411 L216.366716,397.937822 L219.366,403.133 L399.5,299.133975 L400.366025,298.633975 Z" fill="#4A4A4A" fill-rule="nonzero"></path>
            </g>
            <g id="Hemisphere" transform="translate(271.000000, 171.000000)">
                <text id="θ" font-family="TimesNewRomanPS-ItalicMT, Times New Roman" font-size="36" font-style="italic" font-weight="normal" fill="#9013FE">
                    <tspan x="125.28958" y="174.06642">θ</tspan>
                </text>
                <path id="Line-5" d="M129.510347,128.292969 L130.207031,129.010347 L129.848342,129.358689 L83.945,173.936 L86.7327912,176.806384 L77.1413111,179.848342 L80.4626327,170.349983 L83.249,173.219 L129.151658,128.641311 L129.510347,128.292969 Z" fill="#9013FE" fill-rule="nonzero"></path>
                <line x1="129.5" y1="16.5" x2="78.5" y2="64.5" id="Line-5-Copy" stroke="#979797" stroke-linecap="square" stroke-dasharray="3"></line>
                <line x1="78.5" y1="179.5" x2="78.5" y2="64.5" id="Line-5-Copy-2" stroke="#979797" stroke-linecap="square" stroke-dasharray="3"></line>
                <path d="M0,129 C0,164.898509 57.7552673,194 129,194 C200.244733,194 258,164.898509 258,129" id="Oval" stroke="#979797" stroke-width="2"></path>
                <path d="M114.131377,144.264355 C118.616963,145.375781 123.663809,146 129,146 C137.209703,146 144.734536,144.522495 150.584301,142.06642" id="Oval-Copy-3" stroke="#9013FE"></path>
                <path d="M258,129 C258,93.1014913 200.244733,64 129,64 C57.7552673,64 0,93.1014913 0,129" id="Oval-Copy-2" stroke="#979797" stroke-width="2" stroke-dasharray="8"></path>
                <path d="M258,129 C258,57.7552673 200.244733,0 129,0 C57.7552673,0 0,57.7552673 0,129" id="Oval-Copy" stroke="#979797" stroke-width="2"></path>
                <text id="φ-copy" stroke="#FFFFFF" stroke-width="7" font-family="TimesNewRomanPS-ItalicMT, Times New Roman" font-size="36" font-style="italic" font-weight="normal" fill="#417505">
                    <tspan x="104.541992" y="73.5">φ</tspan>
                </text>
                <text id="φ" font-family="TimesNewRomanPS-ItalicMT, Times New Roman" font-size="36" font-style="italic" font-weight="normal" fill="#417505">
                    <tspan x="104.541992" y="73.5">φ</tspan>
                </text>
                <path d="M105.531127,98.6789309 C108.424836,95.5185833 111.271092,92.349197 115.888462,90.1496529 C120.505833,87.9501088 123.843151,87.4619123 128.11608,86.9420364" id="Line-4" stroke="#417505" stroke-linecap="square"></path>
                <path id="Line-3" d="M78.192178,64.1059878 L87.279084,68.427809 L84.127,70.89 L128.894012,128.192178 L129.201834,128.58619 L128.41381,129.201834 L128.105988,128.807822 L83.338,71.505 L80.1868647,73.9686054 L78.192178,64.1059878 Z" fill="#417505" fill-rule="nonzero"></path>
                <path id="Line" d="M235.915421,57.2217462 L230.942124,65.9691064 L228.716,62.645 L129.778254,128.915421 L129.362833,129.193675 L128.806325,128.362833 L129.221746,128.084579 L228.159,61.814 L225.933554,58.4915243 L235.915421,57.2217462 Z" fill="#4A90E2" fill-rule="nonzero"></path>
                <text id="R" stroke="#FFFFFF" stroke-width="7" fill="#D8D8D8" font-family="TimesNewRomanPS-ItalicMT, Times New Roman" font-size="36" font-style="italic" font-weight="normal">
                    <tspan x="197.504883" y="76.5">R</tspan>
                </text>
                <text id="R-Copy" font-family="TimesNewRomanPS-ItalicMT, Times New Roman" font-size="36" font-style="italic" font-weight="normal" fill="#4A90E2">
                    <tspan x="197.504883" y="76.5">R</tspan>
                </text>
                <text id="p" font-family="TimesNewRomanPS-BoldMT, Times New Roman" font-size="36" font-weight="bold" fill="#000000">
                    <tspan x="55.4892578" y="54.5">p</tspan>
                </text>
                <text id="." font-family="TimesNewRomanPS-BoldMT, Times New Roman" font-size="36" font-weight="bold" fill="#000000">
                    <tspan x="72" y="65.5">.</tspan>
                </text>
            </g>
        </g>
    </g>
</svg>